<svg xmlns="http://www.w3.org/2000/svg" viewBox="0 0 24 24" aria-hidden="true">
  <path fill="currentColor" d="M12.785 16.241s.288-.032.436-.194c.136-.148.132-.427.132-.427s-.02-1.283.58-1.472c.591-.184 1.35.926 2.154 1.334.604.294 1.062.229 1.062.229l2.135-.03s1.117-.071.587-.964c-.044-.073-.308-.661-1.588-1.87-1.34-1.264-1.16-1.059.453-3.246.983-1.332 1.376-2.145 1.253-2.493-.117-.327-.84-.241-.84-.241l-2.436.015s-.181-.025-.315.056c-.131.078-.214.26-.214.26s-.385 1.023-.897 1.893c-1.08 1.855-1.512 1.953-1.688 1.838-.411-.268-.308-1.075-.308-1.644 0-1.788.269-2.535-.526-2.725-.265-.064-.459-.106-1.137-.113-.87-.01-1.606.003-2.021.208-.277.144-.49.466-.36.484.162.022.528.099.722.363.251.344.242 1.114.242 1.114s.145 2.135-.337 2.402c-.331.193-.786-.2-1.762-1.995-.499-.87-.877-1.832-.877-1.832s-.073-.181-.204-.279c-.159-.119-.381-.156-.381-.156l-2.325.015s-.349.01-.477.162c-.114.135-.009.414-.009.414s1.816 4.246 3.87 6.387c1.882 1.958 4.027 1.829 4.027 1.829h.973Z"/>
</svg>
